<!--?xml version="1.0" encoding="UTF-8"?-->

<!-- Creator: CorelDRAW -->
<svg xmlns="http://www.w3.org/2000/svg" xml:space="preserve" width="3042px" height="1700px" version="1.1" style="shape-rendering: geometricprecision; text-rendering: geometricprecision; fill-rule: evenodd; clip-rule: evenodd;" viewBox="0 0 228.486 127.679" xmlns:xlink="http://www.w3.org/1999/xlink" xmlns:xodm="http://www.corel.com/coreldraw/odm/2003">
 <defs>
  <style type="text/css">
   
    .str2 {stroke:#48B57F;stroke-width:0.451;stroke-miterlimit:22.9256}
    .str0 {stroke:#48B57F;stroke-width:0.451;stroke-miterlimit:10}
    .str1 {stroke:#4D4D4D;stroke-width:0.451;stroke-miterlimit:10}
    .fil0 {fill:none;fill-rule:nonzero}
   
  </style>
 </defs>
 <g id="Layer_x0020_1">
  <metadata id="CorelCorpID_0Corel-Layer"></metadata>
  <g id="_2007886584720">
   <path class="fil0 str0 rgtrUYpW_0" d="M171.517,127.493L171.517,100.656L159.586,90.667L159.586,53.121L146.535,42.38"></path>
   <path class="fil0 str0 rgtrUYpW_1" d="M159.586,73.444L165.757,68.277L165.757,24.983"></path>
   <path class="fil0 str0 rgtrUYpW_2" d="M156.912,127.493L156.912,106.512"></path>
   <path class="fil0 str0 rgtrUYpW_3" d="M171.517,123.045L184.27,112.367L184.27,45.888L172.545,36.071L172.545,10.72"></path>
   <path class="fil0 str1 rgtrUYpW_4" d="M194.966,127.493L194.966,112.132"></path>
   <path class="fil0 str0 rgtrUYpW_5" d="M184.27,91.011L193.321,83.433L193.321,28.214"></path>
   <path class="fil0 str0 rgtrUYpW_6" d="M184.27,77.922L178.407,73.014L178.407,53.575"></path>
   <path class="fil0 str0 rgtrUYpW_7" d="M144.233,127.493L144.233,103.398"></path>
   <path class="fil0 str1 rgtrUYpW_8" d="M194.966,123.045L207.166,112.831L207.166,61.286"></path>
   <path class="fil0 str0 rgtrUYpW_9" d="M94.867,127.493L94.867,112.132"></path>
   <path class="fil0 str0 rgtrUYpW_10" d="M105.814,127.493L107.219,126.344L107.219,82.561"></path>
   <path class="fil0 str1 rgtrUYpW_11" d="M124.842,127.493L124.842,29.181"></path>
   <path class="fil0 str1 rgtrUYpW_12" d="M124.842,101.783L147.23,83.038L147.23,58.028"></path>
   <path class="fil0 str1 rgtrUYpW_13" d="M124.842,81.5L137.644,70.781L137.644,3.456"></path>
   <path class="fil0 str0 rgtrUYpW_14" d="M218.516,127.493L212.986,122.862L212.986,89.101L219.145,83.945L219.145,72.99"></path>
   <path class="fil0 str0 rgtrUYpW_15" d="M228.261,127.493L228.261,93.083L212.108,79.56L212.108,50.603"></path>
   <path class="fil0 str0 rgtrUYpW_16" d="M205.392,127.493L223.69,112.172L223.69,95.181"></path>
   <path class="fil0 str0 rgtrUYpW_17" d="M130.304,127.493L130.304,106.533"></path>
   <path class="fil0 str0 rgtrUYpW_18" d="M119.843,127.493L114.547,123.876L114.547,57.676"></path>
   <path class="fil0 str1 rgtrUYpW_19" d="M77.493,127.493L66.267,117.127L66.267,75.709L109.408,35.873L109.408,18.322"></path>
   <path class="fil0 str0 rgtrUYpW_20" d="M65.247,127.493L78.697,115.074L78.697,88.072"></path>
   <path class="fil0 str0 rgtrUYpW_21" d="M78.697,97.427L99.131,78.559L99.131,36.421"></path>
   <path class="fil0 str0 rgtrUYpW_22" d="M107.219,103.219L86.538,84.123L86.538,43.493"></path>
   <path class="fil0 str0 rgtrUYpW_23" d="M54.622,127.493L41.412,115.295L41.412,83.115"></path>
   <path class="fil0 str0 rgtrUYpW_24" d="M30.529,127.493L58.232,101.913L58.232,50.603"></path>
   <path class="fil0 str0 rgtrUYpW_25" d="M58.232,66.116L44.247,53.203L44.247,23.751"></path>
   <path class="fil0 str0 rgtrUYpW_26" d="M58.232,91.595L74.959,76.148L74.959,30.991"></path>
   <path class="fil0 str0 rgtrUYpW_27" d="M34.979,127.493L0.153,95.335"></path>
   <path class="fil0 str1 rgtrUYpW_28" d="M7.828,127.493L27.05,109.744L27.05,72.582L19.998,66.071L19.998,35.947"></path>
   <path class="fil0 str0 rgtrUYpW_29" d="M8.773,127.493L8.773,118.784L3.243,113.678L3.243,76.795L8.019,72.385L8.019,42.853"></path>
   <path class="fil0 str0 rgtrUYpW_30" d="M0.153,95.335L16.049,84.38L16.049,76.96"></path>
   <path class="fil0 str0 rgtrUYpW_31" d="M27.05,93.999L38.518,83.409L38.518,32.606"></path>
   <path class="fil0 str2 rgtrUYpW_32" d="M222.075 93.565c0,0.892 0.723,1.616 1.615,1.616 0.893,0 1.616,-0.724 1.616,-1.616 0,-0.893 -0.723,-1.616 -1.616,-1.616 -0.892,0 -1.615,0.723 -1.615,1.616z"></path>
   <path class="fil0 str2 rgtrUYpW_33" d="M179.775 125.629c0,0.892 0.723,1.615 1.615,1.615 0.892,0 1.616,-0.723 1.616,-1.615 0,-0.892 -0.724,-1.616 -1.616,-1.616 -0.892,0 -1.615,0.724 -1.615,1.616z"></path>
   <path class="fil0 str2 rgtrUYpW_34" d="M210.493 48.988c0,0.892 0.723,1.615 1.615,1.615 0.892,0 1.616,-0.723 1.616,-1.615 0,-0.892 -0.724,-1.616 -1.616,-1.616 -0.892,0 -1.615,0.724 -1.615,1.616z"></path>
   <path class="fil0 str2 rgtrUYpW_35" d="M170.9 9.105c0,0.892 0.723,1.615 1.615,1.615 0.892,0 1.616,-0.723 1.616,-1.615 0,-0.892 -0.724,-1.615 -1.616,-1.615 -0.892,0 -1.615,0.723 -1.615,1.615z"></path>
   <path class="fil0 str2 rgtrUYpW_36" d="M143.777 41.238c0,0.892 0.724,1.615 1.616,1.615 0.892,0 1.615,-0.723 1.615,-1.615 0,-0.893 -0.723,-1.616 -1.615,-1.616 -0.892,0 -1.616,0.723 -1.616,1.616z"></path>
   <path class="fil0 str2 rgtrUYpW_37" d="M123.226 27.566c0,0.892 0.724,1.615 1.616,1.615 0.892,0 1.616,-0.723 1.616,-1.615 0,-0.893 -0.724,-1.616 -1.616,-1.616 -0.892,0 -1.616,0.723 -1.616,1.616z"></path>
   <path class="fil0 str2 rgtrUYpW_38" d="M136.029 1.841c0,0.892 0.723,1.615 1.615,1.615 0.893,0 1.616,-0.723 1.616,-1.615 0,-0.893 -0.723,-1.616 -1.616,-1.616 -0.892,0 -1.615,0.723 -1.615,1.616z"></path>
   <path class="fil0 str2 rgtrUYpW_39" d="M107.792 16.706c0,0.892 0.724,1.616 1.616,1.616 0.892,0 1.616,-0.724 1.616,-1.616 0,-0.892 -0.724,-1.615 -1.616,-1.615 -0.892,0 -1.616,0.723 -1.616,1.615z"></path>
   <path class="fil0 str2 rgtrUYpW_40" d="M97.515 34.805c0,0.892 0.723,1.616 1.616,1.616 0.892,0 1.615,-0.724 1.615,-1.616 0,-0.892 -0.723,-1.615 -1.615,-1.615 -0.893,0 -1.616,0.723 -1.616,1.615z"></path>
   <path class="fil0 str2 rgtrUYpW_41" d="M142.617 101.783c0,0.892 0.724,1.615 1.616,1.615 0.892,0 1.615,-0.723 1.615,-1.615 0,-0.892 -0.723,-1.616 -1.615,-1.616 -0.892,0 -1.616,0.724 -1.616,1.616z"></path>
   <path class="fil0 str2 rgtrUYpW_42" d="M56.616 48.988c0,0.892 0.723,1.615 1.616,1.615 0.892,0 1.615,-0.723 1.615,-1.615 0,-0.892 -0.723,-1.616 -1.615,-1.616 -0.893,0 -1.616,0.724 -1.616,1.616z"></path>
   <path class="fil0 str2 rgtrUYpW_43" d="M73.344 29.375c0,0.893 0.723,1.616 1.615,1.616 0.893,0 1.616,-0.723 1.616,-1.616 0,-0.891 -0.723,-1.615 -1.616,-1.615 -0.892,0 -1.615,0.724 -1.615,1.615z"></path>
   <path class="fil0 str2 rgtrUYpW_44" d="M42.631 22.136c0,0.892 0.724,1.615 1.616,1.615 0.892,0 1.616,-0.723 1.616,-1.615 0,-0.892 -0.724,-1.615 -1.616,-1.615 -0.892,0 -1.616,0.723 -1.616,1.615z"></path>
   <path class="fil0 str2 rgtrUYpW_45" d="M14.345 75.346c0,0.893 0.723,1.616 1.615,1.616 0.892,0 1.616,-0.723 1.616,-1.616 0,-0.892 -0.724,-1.615 -1.616,-1.615 -0.892,0 -1.615,0.723 -1.615,1.615z"></path>
   <path class="fil0 str2 rgtrUYpW_46" d="M6.423 41.238c0,0.892 0.723,1.615 1.616,1.615 0.892,0 1.615,-0.723 1.615,-1.615 0,-0.893 -0.723,-1.616 -1.615,-1.616 -0.893,0 -1.616,0.723 -1.616,1.616z"></path>
   <path class="fil0 str2 rgtrUYpW_47" d="M39.797 81.5c0,0.892 0.723,1.615 1.615,1.615 0.892,0 1.615,-0.723 1.615,-1.615 0,-0.892 -0.723,-1.615 -1.615,-1.615 -0.892,0 -1.615,0.723 -1.615,1.615z"></path>
   <path class="fil0 str2 rgtrUYpW_48" d="M36.902 30.991c0,0.892 0.724,1.615 1.616,1.615 0.892,0 1.616,-0.723 1.616,-1.615 0,-0.892 -0.724,-1.616 -1.616,-1.616 -0.892,0 -1.616,0.724 -1.616,1.616z"></path>
   <path class="fil0 str2 rgtrUYpW_49" d="M191.705 26.599c0,0.892 0.724,1.615 1.616,1.615 0.892,0 1.615,-0.723 1.615,-1.615 0,-0.893 -0.723,-1.616 -1.615,-1.616 -0.892,0 -1.616,0.723 -1.616,1.616z"></path>
   <path class="fil0 str2 rgtrUYpW_50" d="M218.003 71.847c0,0.631 0.511,1.143 1.142,1.143 0.631,0 1.142,-0.512 1.142,-1.143 0,-0.63 -0.511,-1.142 -1.142,-1.142 -0.631,0 -1.142,0.512 -1.142,1.142z"></path>
   <path class="fil0 str2 rgtrUYpW_51" d="M206.024 60.144c0,0.631 0.511,1.142 1.142,1.142 0.631,0 1.142,-0.511 1.142,-1.142 0,-0.631 -0.511,-1.143 -1.142,-1.143 -0.631,0 -1.142,0.512 -1.142,1.143z"></path>
   <path class="fil0 str2 rgtrUYpW_52" d="M177.265 52.432c0,0.632 0.512,1.143 1.142,1.143 0.632,0 1.143,-0.511 1.143,-1.143 0,-0.63 -0.511,-1.142 -1.143,-1.142 -0.63,0 -1.142,0.512 -1.142,1.142z"></path>
   <path class="fil0 str2 rgtrUYpW_53" d="M193.824 110.99c0,0.63 0.511,1.142 1.142,1.142 0.631,0 1.143,-0.512 1.143,-1.142 0,-0.631 -0.512,-1.143 -1.143,-1.143 -0.631,0 -1.142,0.512 -1.142,1.143z"></path>
   <path class="fil0 str2 rgtrUYpW_54" d="M146.087 56.886c0,0.631 0.512,1.142 1.143,1.142 0.631,0 1.142,-0.511 1.142,-1.142 0,-0.631 -0.511,-1.142 -1.142,-1.142 -0.631,0 -1.143,0.511 -1.143,1.142z"></path>
   <path class="fil0 str2 rgtrUYpW_55" d="M106.076 81.5c0,0.631 0.512,1.142 1.143,1.142 0.63,0 1.142,-0.511 1.142,-1.142 0,-0.631 -0.512,-1.142 -1.142,-1.142 -0.631,0 -1.143,0.511 -1.143,1.142z"></path>
   <path class="fil0 str2 rgtrUYpW_56" d="M77.554 86.93c0,0.631 0.512,1.142 1.143,1.142 0.631,0 1.142,-0.511 1.142,-1.142 0,-0.631 -0.511,-1.143 -1.142,-1.143 -0.631,0 -1.143,0.512 -1.143,1.143z"></path>
   <path class="fil0 str2 rgtrUYpW_57" d="M93.725 110.99c0,0.63 0.512,1.142 1.142,1.142 0.631,0 1.143,-0.512 1.143,-1.142 0,-0.631 -0.512,-1.143 -1.143,-1.143 -0.63,0 -1.142,0.512 -1.142,1.143z"></path>
   <path class="fil0 str2 rgtrUYpW_58" d="M129.162 105.391c0,0.63 0.511,1.142 1.142,1.142 0.631,0 1.143,-0.512 1.143,-1.142 0,-0.631 -0.512,-1.143 -1.143,-1.143 -0.631,0 -1.142,0.512 -1.142,1.143z"></path>
   <path class="fil0 str2 rgtrUYpW_59" d="M18.806 34.805c0,0.631 0.511,1.142 1.142,1.142 0.631,0 1.142,-0.511 1.142,-1.142 0,-0.63 -0.511,-1.142 -1.142,-1.142 -0.631,0 -1.142,0.512 -1.142,1.142z"></path>
   <path class="fil0 str2 rgtrUYpW_60" d="M155.77 105.391c0,0.63 0.511,1.142 1.142,1.142 0.631,0 1.142,-0.512 1.142,-1.142 0,-0.631 -0.511,-1.143 -1.142,-1.143 -0.631,0 -1.142,0.512 -1.142,1.143z"></path>
   <path class="fil0 str2 rgtrUYpW_61" d="M113.437 56.772c0,0.631 0.512,1.142 1.143,1.142 0.631,0 1.142,-0.511 1.142,-1.142 0,-0.631 -0.511,-1.142 -1.142,-1.142 -0.631,0 -1.143,0.511 -1.143,1.142z"></path>
   <path class="fil0 str2 rgtrUYpW_62" d="M164.615 23.841c0,0.631 0.511,1.142 1.142,1.142 0.631,0 1.142,-0.511 1.142,-1.142 0,-0.631 -0.511,-1.143 -1.142,-1.143 -0.631,0 -1.142,0.512 -1.142,1.143z"></path>
   <path class="fil0 str2 rgtrUYpW_63" d="M85.396 42.35c0,0.631 0.512,1.143 1.142,1.143 0.631,0 1.142,-0.512 1.142,-1.143 0,-0.63 -0.511,-1.142 -1.142,-1.142 -0.63,0 -1.142,0.512 -1.142,1.142z"></path>
  </g>
 </g>
<style data-made-with="vivus-instant">.rgtrUYpW_0{stroke-dasharray:97 99;stroke-dashoffset:98;animation:rgtrUYpW_draw 2000ms linear 0ms forwards;}.rgtrUYpW_1{stroke-dasharray:52 54;stroke-dashoffset:53;animation:rgtrUYpW_draw 2000ms linear 15ms forwards;}.rgtrUYpW_2{stroke-dasharray:21 23;stroke-dashoffset:22;animation:rgtrUYpW_draw 2000ms linear 31ms forwards;}.rgtrUYpW_3{stroke-dasharray:124 126;stroke-dashoffset:125;animation:rgtrUYpW_draw 2000ms linear 47ms forwards;}.rgtrUYpW_4{stroke-dasharray:16 18;stroke-dashoffset:17;animation:rgtrUYpW_draw 2000ms linear 63ms forwards;}.rgtrUYpW_5{stroke-dasharray:68 70;stroke-dashoffset:69;animation:rgtrUYpW_draw 2000ms linear 79ms forwards;}.rgtrUYpW_6{stroke-dasharray:28 30;stroke-dashoffset:29;animation:rgtrUYpW_draw 2000ms linear 95ms forwards;}.rgtrUYpW_7{stroke-dasharray:25 27;stroke-dashoffset:26;animation:rgtrUYpW_draw 2000ms linear 111ms forwards;}.rgtrUYpW_8{stroke-dasharray:68 70;stroke-dashoffset:69;animation:rgtrUYpW_draw 2000ms linear 126ms forwards;}.rgtrUYpW_9{stroke-dasharray:16 18;stroke-dashoffset:17;animation:rgtrUYpW_draw 2000ms linear 142ms forwards;}.rgtrUYpW_10{stroke-dasharray:46 48;stroke-dashoffset:47;animation:rgtrUYpW_draw 2000ms linear 158ms forwards;}.rgtrUYpW_11{stroke-dasharray:99 101;stroke-dashoffset:100;animation:rgtrUYpW_draw 2000ms linear 174ms forwards;}.rgtrUYpW_12{stroke-dasharray:55 57;stroke-dashoffset:56;animation:rgtrUYpW_draw 2000ms linear 190ms forwards;}.rgtrUYpW_13{stroke-dasharray:85 87;stroke-dashoffset:86;animation:rgtrUYpW_draw 2000ms linear 206ms forwards;}.rgtrUYpW_14{stroke-dasharray:60 62;stroke-dashoffset:61;animation:rgtrUYpW_draw 2000ms linear 222ms forwards;}.rgtrUYpW_15{stroke-dasharray:85 87;stroke-dashoffset:86;animation:rgtrUYpW_draw 2000ms linear 238ms forwards;}.rgtrUYpW_16{stroke-dasharray:41 43;stroke-dashoffset:42;animation:rgtrUYpW_draw 2000ms linear 253ms forwards;}.rgtrUYpW_17{stroke-dasharray:21 23;stroke-dashoffset:22;animation:rgtrUYpW_draw 2000ms linear 269ms forwards;}.rgtrUYpW_18{stroke-dasharray:73 75;stroke-dashoffset:74;animation:rgtrUYpW_draw 2000ms linear 285ms forwards;}.rgtrUYpW_19{stroke-dasharray:133 135;stroke-dashoffset:134;animation:rgtrUYpW_draw 2000ms linear 301ms forwards;}.rgtrUYpW_20{stroke-dasharray:46 48;stroke-dashoffset:47;animation:rgtrUYpW_draw 2000ms linear 317ms forwards;}.rgtrUYpW_21{stroke-dasharray:70 72;stroke-dashoffset:71;animation:rgtrUYpW_draw 2000ms linear 333ms forwards;}.rgtrUYpW_22{stroke-dasharray:69 71;stroke-dashoffset:70;animation:rgtrUYpW_draw 2000ms linear 349ms forwards;}.rgtrUYpW_23{stroke-dasharray:51 53;stroke-dashoffset:52;animation:rgtrUYpW_draw 2000ms linear 365ms forwards;}.rgtrUYpW_24{stroke-dasharray:90 92;stroke-dashoffset:91;animation:rgtrUYpW_draw 2000ms linear 380ms forwards;}.rgtrUYpW_25{stroke-dasharray:49 51;stroke-dashoffset:50;animation:rgtrUYpW_draw 2000ms linear 396ms forwards;}.rgtrUYpW_26{stroke-dasharray:68 70;stroke-dashoffset:69;animation:rgtrUYpW_draw 2000ms linear 412ms forwards;}.rgtrUYpW_27{stroke-dasharray:48 50;stroke-dashoffset:49;animation:rgtrUYpW_draw 2000ms linear 428ms forwards;}.rgtrUYpW_28{stroke-dasharray:104 106;stroke-dashoffset:105;animation:rgtrUYpW_draw 2000ms linear 444ms forwards;}.rgtrUYpW_29{stroke-dasharray:90 92;stroke-dashoffset:91;animation:rgtrUYpW_draw 2000ms linear 460ms forwards;}.rgtrUYpW_30{stroke-dasharray:27 29;stroke-dashoffset:28;animation:rgtrUYpW_draw 2000ms linear 476ms forwards;}.rgtrUYpW_31{stroke-dasharray:67 69;stroke-dashoffset:68;animation:rgtrUYpW_draw 2000ms linear 492ms forwards;}.rgtrUYpW_32{stroke-dasharray:11 13;stroke-dashoffset:12;animation:rgtrUYpW_draw 2000ms linear 507ms forwards;}.rgtrUYpW_33{stroke-dasharray:11 13;stroke-dashoffset:12;animation:rgtrUYpW_draw 2000ms linear 523ms forwards;}.rgtrUYpW_34{stroke-dasharray:11 13;stroke-dashoffset:12;animation:rgtrUYpW_draw 2000ms linear 539ms forwards;}.rgtrUYpW_35{stroke-dasharray:11 13;stroke-dashoffset:12;animation:rgtrUYpW_draw 2000ms linear 555ms forwards;}.rgtrUYpW_36{stroke-dasharray:11 13;stroke-dashoffset:12;animation:rgtrUYpW_draw 2000ms linear 571ms forwards;}.rgtrUYpW_37{stroke-dasharray:11 13;stroke-dashoffset:12;animation:rgtrUYpW_draw 2000ms linear 587ms forwards;}.rgtrUYpW_38{stroke-dasharray:11 13;stroke-dashoffset:12;animation:rgtrUYpW_draw 2000ms linear 603ms forwards;}.rgtrUYpW_39{stroke-dasharray:11 13;stroke-dashoffset:12;animation:rgtrUYpW_draw 2000ms linear 619ms forwards;}.rgtrUYpW_40{stroke-dasharray:11 13;stroke-dashoffset:12;animation:rgtrUYpW_draw 2000ms linear 634ms forwards;}.rgtrUYpW_41{stroke-dasharray:11 13;stroke-dashoffset:12;animation:rgtrUYpW_draw 2000ms linear 650ms forwards;}.rgtrUYpW_42{stroke-dasharray:11 13;stroke-dashoffset:12;animation:rgtrUYpW_draw 2000ms linear 666ms forwards;}.rgtrUYpW_43{stroke-dasharray:11 13;stroke-dashoffset:12;animation:rgtrUYpW_draw 2000ms linear 682ms forwards;}.rgtrUYpW_44{stroke-dasharray:11 13;stroke-dashoffset:12;animation:rgtrUYpW_draw 2000ms linear 698ms forwards;}.rgtrUYpW_45{stroke-dasharray:11 13;stroke-dashoffset:12;animation:rgtrUYpW_draw 2000ms linear 714ms forwards;}.rgtrUYpW_46{stroke-dasharray:11 13;stroke-dashoffset:12;animation:rgtrUYpW_draw 2000ms linear 730ms forwards;}.rgtrUYpW_47{stroke-dasharray:11 13;stroke-dashoffset:12;animation:rgtrUYpW_draw 2000ms linear 746ms forwards;}.rgtrUYpW_48{stroke-dasharray:11 13;stroke-dashoffset:12;animation:rgtrUYpW_draw 2000ms linear 761ms forwards;}.rgtrUYpW_49{stroke-dasharray:11 13;stroke-dashoffset:12;animation:rgtrUYpW_draw 2000ms linear 777ms forwards;}.rgtrUYpW_50{stroke-dasharray:8 10;stroke-dashoffset:9;animation:rgtrUYpW_draw 2000ms linear 793ms forwards;}.rgtrUYpW_51{stroke-dasharray:8 10;stroke-dashoffset:9;animation:rgtrUYpW_draw 2000ms linear 809ms forwards;}.rgtrUYpW_52{stroke-dasharray:8 10;stroke-dashoffset:9;animation:rgtrUYpW_draw 2000ms linear 825ms forwards;}.rgtrUYpW_53{stroke-dasharray:8 10;stroke-dashoffset:9;animation:rgtrUYpW_draw 2000ms linear 841ms forwards;}.rgtrUYpW_54{stroke-dasharray:8 10;stroke-dashoffset:9;animation:rgtrUYpW_draw 2000ms linear 857ms forwards;}.rgtrUYpW_55{stroke-dasharray:8 10;stroke-dashoffset:9;animation:rgtrUYpW_draw 2000ms linear 873ms forwards;}.rgtrUYpW_56{stroke-dasharray:8 10;stroke-dashoffset:9;animation:rgtrUYpW_draw 2000ms linear 888ms forwards;}.rgtrUYpW_57{stroke-dasharray:8 10;stroke-dashoffset:9;animation:rgtrUYpW_draw 2000ms linear 904ms forwards;}.rgtrUYpW_58{stroke-dasharray:8 10;stroke-dashoffset:9;animation:rgtrUYpW_draw 2000ms linear 920ms forwards;}.rgtrUYpW_59{stroke-dasharray:8 10;stroke-dashoffset:9;animation:rgtrUYpW_draw 2000ms linear 936ms forwards;}.rgtrUYpW_60{stroke-dasharray:8 10;stroke-dashoffset:9;animation:rgtrUYpW_draw 2000ms linear 952ms forwards;}.rgtrUYpW_61{stroke-dasharray:8 10;stroke-dashoffset:9;animation:rgtrUYpW_draw 2000ms linear 968ms forwards;}.rgtrUYpW_62{stroke-dasharray:8 10;stroke-dashoffset:9;animation:rgtrUYpW_draw 2000ms linear 984ms forwards;}.rgtrUYpW_63{stroke-dasharray:8 10;stroke-dashoffset:9;animation:rgtrUYpW_draw 2000ms linear 1000ms forwards;}@keyframes rgtrUYpW_draw{100%{stroke-dashoffset:0;}}@keyframes rgtrUYpW_fade{0%{stroke-opacity:1;}94.44444444444444%{stroke-opacity:1;}100%{stroke-opacity:0;}}</style></svg>
